# xmcd
#
# Track frame offsets: 
#        150
#        16134
#        56524
#        99316
#        124089
#        157339
#        181096
#
# Disc length: 2782 seconds
#
# Revision: 0
# Processed by: cddbd v1.5.2PL0 Copyright (c) Steve Scherf et al.
# Submitted via: ExactAudioCopy v1.3
#
DISCID=500adc07
DTITLE=Big Mama Thornton - CD Three Big Mama Swings
DYEAR=2000
DGENRE=Blues
TTITLE0=Good-Bye Baby
TTITLE1=Gonna Leave You
TTITLE2=Mixed Up Feeling
TTITLE3=Special
TTITLE4=Going Fishing
TTITLE5=Big Mama Swings
TTITLE6=Happy Me
EXTD=
EXTT0=
EXTT1=
EXTT2=
EXTT3=
EXTT4=
EXTT5=
EXTT6=
PLAYORDER=
